<?xml version="1.0" encoding="UTF-8"?>
<svg width="100" height="100" viewBox="0 0 100 100" xmlns="http://www.w3.org/2000/svg">
  <!-- 背景圆 -->
  <circle cx="50" cy="50" r="45" fill="#4caf50" opacity="0.1"/>
  
  <!-- 阿修罗形象 - 中心 -->
  <circle cx="50" cy="50" r="15" fill="#4caf50" opacity="0.3"/>
  
  <!-- 阿修罗形象 - 多重头像 -->
  <circle cx="50" cy="30" r="8" fill="#4caf50" opacity="0.5"/>
  <circle cx="70" cy="50" r="8" fill="#4caf50" opacity="0.5"/>
  <circle cx="50" cy="70" r="8" fill="#4caf50" opacity="0.5"/>
  <circle cx="30" cy="50" r="8" fill="#4caf50" opacity="0.5"/>
  <circle cx="65" cy="35" r="8" fill="#4caf50" opacity="0.5"/>
  <circle cx="65" cy="65" r="8" fill="#4caf50" opacity="0.5"/>
  <circle cx="35" cy="65" r="8" fill="#4caf50" opacity="0.5"/>
  <circle cx="35" cy="35" r="8" fill="#4caf50" opacity="0.5"/>
  
  <!-- 九刀流效果 -->
  <path d="M50,20 L50,40" stroke="#9e9e9e" stroke-width="3" stroke-linecap="round" fill="none"/>
  <path d="M60,22 L55,40" stroke="#9e9e9e" stroke-width="3" stroke-linecap="round" fill="none"/>
  <path d="M70,30 L60,45" stroke="#9e9e9e" stroke-width="3" stroke-linecap="round" fill="none"/>
  <path d="M78,40 L60,50" stroke="#9e9e9e" stroke-width="3" stroke-linecap="round" fill="none"/>
  <path d="M78,60 L60,55" stroke="#9e9e9e" stroke-width="3" stroke-linecap="round" fill="none"/>
  <path d="M70,70 L60,60" stroke="#9e9e9e" stroke-width="3" stroke-linecap="round" fill="none"/>
  <path d="M60,78 L55,65" stroke="#9e9e9e" stroke-width="3" stroke-linecap="round" fill="none"/>
  <path d="M40,78 L45,65" stroke="#9e9e9e" stroke-width="3" stroke-linecap="round" fill="none"/>
  <path d="M30,70 L40,60" stroke="#9e9e9e" stroke-width="3" stroke-linecap="round" fill="none"/>
  
  <!-- 能量波动 -->
  <circle cx="50" cy="50" r="30" fill="none" stroke="#4caf50" stroke-width="2" opacity="0.5">
    <animate attributeName="r" values="30;40;30" dur="2s" repeatCount="indefinite"/>
    <animate attributeName="opacity" values="0.5;0.1;0.5" dur="2s" repeatCount="indefinite"/>
  </circle>
  
  <!-- 霸气效果 -->
  <circle cx="50" cy="50" r="25" fill="none" stroke="#000000" stroke-width="1" opacity="0.3">
    <animate attributeName="r" values="25;35;25" dur="3s" repeatCount="indefinite"/>
    <animate attributeName="opacity" values="0.3;0.1;0.3" dur="3s" repeatCount="indefinite"/>
  </circle>
</svg>