<?xml version="1.0" encoding="UTF-8"?>
<svg width="100" height="100" viewBox="0 0 100 100" xmlns="http://www.w3.org/2000/svg">
  <!-- 背景圆 -->
  <circle cx="50" cy="50" r="45" fill="#9c27b0" opacity="0.1"/>
  
  <!-- 黑曼巴蛇形拳影 -->
  <path d="M20,50 C25,45 30,50 35,45 C40,40 45,45 50,40" stroke="#ffccbc" stroke-width="5" stroke-linecap="round" fill="none">
    <animate attributeName="opacity" values="1;0.5;1" dur="0.8s" repeatCount="indefinite"/>
  </path>
  <path d="M30,60 C35,55 40,60 45,55 C50,50 55,55 60,50" stroke="#ffccbc" stroke-width="5" stroke-linecap="round" fill="none">
    <animate attributeName="opacity" values="1;0.5;1" dur="0.8s" repeatCount="indefinite" begin="0.2s"/>
  </path>
  <path d="M40,70 C45,65 50,70 55,65 C60,60 65,65 70,60" stroke="#ffccbc" stroke-width="5" stroke-linecap="round" fill="none">
    <animate attributeName="opacity" values="1;0.5;1" dur="0.8s" repeatCount="indefinite" begin="0.4s"/>
  </path>
  
  <!-- 紫色能量 -->
  <circle cx="50" cy="50" r="30" fill="none" stroke="#9c27b0" stroke-width="2" opacity="0.5">
    <animate attributeName="r" values="25;35;25" dur="1.5s" repeatCount="indefinite"/>
    <animate attributeName="opacity" values="0.5;0.2;0.5" dur="1.5s" repeatCount="indefinite"/>
  </circle>
  
  <!-- 蛇形轨迹 -->
  <path d="M20,50 C30,40 40,60 50,40 C60,20 70,40 80,30" stroke="#9c27b0" stroke-width="1" stroke-dasharray="2,2" fill="none" opacity="0.7">
    <animate attributeName="opacity" values="0.7;0.3;0.7" dur="1.5s" repeatCount="indefinite"/>
  </path>
</svg>