<?xml version="1.0" encoding="UTF-8"?>
<svg width="100" height="100" viewBox="0 0 100 100" xmlns="http://www.w3.org/2000/svg">
  <!-- 背景圆 -->
  <circle cx="50" cy="50" r="45" fill="#f44336" opacity="0.1"/>
  
  <!-- 拳头轮廓 -->
  <circle cx="50" cy="50" r="20" fill="#ffccbc"/>
  
  <!-- 拳头细节 -->
  <path d="M40,45 C40,45 45,40 50,40 C55,40 60,45 60,45" stroke="#e57373" stroke-width="1" fill="none"/>
  <path d="M40,55 C40,55 45,60 50,60 C55,60 60,55 60,55" stroke="#e57373" stroke-width="1" fill="none"/>
  
  <!-- 速度线 -->
  <path d="M70,50 L90,50" stroke="#f44336" stroke-width="3" stroke-linecap="round">
    <animate attributeName="opacity" values="1;0.3;1" dur="1s" repeatCount="indefinite"/>
  </path>
  <path d="M65,40 L85,30" stroke="#f44336" stroke-width="3" stroke-linecap="round">
    <animate attributeName="opacity" values="1;0.3;1" dur="1s" repeatCount="indefinite" begin="0.1s"/>
  </path>
  <path d="M65,60 L85,70" stroke="#f44336" stroke-width="3" stroke-linecap="round">
    <animate attributeName="opacity" values="1;0.3;1" dur="1s" repeatCount="indefinite" begin="0.2s"/>
  </path>
  
  <!-- 蒸汽效果 -->
  <circle cx="30" cy="40" r="3" fill="#f5f5f5" opacity="0.7">
    <animate attributeName="cy" values="40;30;20" dur="2s" repeatCount="indefinite"/>
    <animate attributeName="opacity" values="0.7;0.3;0" dur="2s" repeatCount="indefinite"/>
  </circle>
  <circle cx="35" cy="45" r="2" fill="#f5f5f5" opacity="0.7">
    <animate attributeName="cy" values="45;35;25" dur="1.5s" repeatCount="indefinite"/>
    <animate attributeName="opacity" values="0.7;0.3;0" dur="1.5s" repeatCount="indefinite"/>
  </circle>
  <circle cx="25" cy="50" r="2.5" fill="#f5f5f5" opacity="0.7">
    <animate attributeName="cy" values="50;40;30" dur="1.8s" repeatCount="indefinite"/>
    <animate attributeName="opacity" values="0.7;0.3;0" dur="1.8s" repeatCount="indefinite"/>
  </circle>
  
  <!-- 冲击波 -->
  <circle cx="50" cy="50" r="30" fill="none" stroke="#f44336" stroke-width="2" opacity="0.5">
    <animate attributeName="r" values="25;40;25" dur="2s" repeatCount="indefinite"/>
    <animate attributeName="opacity" values="0.5;0;0.5" dur="2s" repeatCount="indefinite"/>
  </circle>
</svg>