<?xml version="1.0" encoding="UTF-8"?>
<svg width="100" height="100" viewBox="0 0 100 100" xmlns="http://www.w3.org/2000/svg">
  <!-- 背景圆 -->
  <circle cx="50" cy="50" r="45" fill="#f44336" opacity="0.1"/>
  
  <!-- 双手轮廓 -->
  <circle cx="35" cy="50" r="12" fill="#ffccbc"/>
  <circle cx="65" cy="50" r="12" fill="#ffccbc"/>
  
  <!-- 手掌细节 -->
  <path d="M30,45 C30,45 33,42 35,42 C37,42 40,45 40,45" stroke="#e57373" stroke-width="1" fill="none"/>
  <path d="M30,55 C30,55 33,58 35,58 C37,58 40,55 40,55" stroke="#e57373" stroke-width="1" fill="none"/>
  
  <path d="M60,45 C60,45 63,42 65,42 C67,42 70,45 70,45" stroke="#e57373" stroke-width="1" fill="none"/>
  <path d="M60,55 C60,55 63,58 65,58 C67,58 70,55 70,55" stroke="#e57373" stroke-width="1" fill="none"/>
  
  <!-- 冲击波 -->
  <circle cx="50" cy="50" r="25" fill="none" stroke="#f44336" stroke-width="3" opacity="0.7">
    <animate attributeName="r" values="25;40;25" dur="1.5s" repeatCount="indefinite"/>
    <animate attributeName="opacity" values="0.7;0.1;0.7" dur="1.5s" repeatCount="indefinite"/>
  </circle>
  
  <!-- 蒸汽效果 -->
  <circle cx="20" cy="40" r="3" fill="#f5f5f5" opacity="0.7">
    <animate attributeName="cy" values="40;30;20" dur="2s" repeatCount="indefinite"/>
    <animate attributeName="opacity" values="0.7;0.3;0" dur="2s" repeatCount="indefinite"/>
  </circle>
  <circle cx="25" cy="45" r="2" fill="#f5f5f5" opacity="0.7">
    <animate attributeName="cy" values="45;35;25" dur="1.5s" repeatCount="indefinite"/>
    <animate attributeName="opacity" values="0.7;0.3;0" dur="1.5s" repeatCount="indefinite"/>
  </circle>
  
  <circle cx="80" cy="40" r="3" fill="#f5f5f5" opacity="0.7">
    <animate attributeName="cy" values="40;30;20" dur="2s" repeatCount="indefinite"/>
    <animate attributeName="opacity" values="0.7;0.3;0" dur="2s" repeatCount="indefinite"/>
  </circle>
  <circle cx="75" cy="45" r="2" fill="#f5f5f5" opacity="0.7">
    <animate attributeName="cy" values="45;35;25" dur="1.5s" repeatCount="indefinite"/>
    <animate attributeName="opacity" values="0.7;0.3;0" dur="1.5s" repeatCount="indefinite"/>
  </circle>
  
  <!-- 爆炸效果 -->
  <path d="M45,50 L55,50" stroke="#ffeb3b" stroke-width="3" stroke-linecap="round">
    <animate attributeName="opacity" values="1;0.3;1" dur="0.5s" repeatCount="indefinite"/>
  </path>
  <path d="M50,45 L50,55" stroke="#ffeb3b" stroke-width="3" stroke-linecap="round">
    <animate attributeName="opacity" values="1;0.3;1" dur="0.5s" repeatCount="indefinite" begin="0.1s"/>
  </path>
  <path d="M45,45 L55,55" stroke="#ffeb3b" stroke-width="3" stroke-linecap="round">
    <animate attributeName="opacity" values="1;0.3;1" dur="0.5s" repeatCount="indefinite" begin="0.2s"/>
  </path>
  <path d="M45,55 L55,45" stroke="#ffeb3b" stroke-width="3" stroke-linecap="round">
    <animate attributeName="opacity" values="1;0.3;1" dur="0.5s" repeatCount="indefinite" begin="0.3s"/>
  </path>
</svg>