<?xml version="1.0" encoding="UTF-8"?>
<svg xmlns="http://www.w3.org/2000/svg" viewBox="0 0 100 100">
  <defs>
    <radialGradient id="rasenganGradient" cx="50%" cy="50%" r="50%" fx="50%" fy="50%">
      <stop offset="0%" stop-color="#87CEFA" />
      <stop offset="70%" stop-color="#1E90FF" />
      <stop offset="100%" stop-color="#0000CD" />
    </radialGradient>
  </defs>
  
  <!-- 螺旋丸主体 -->
  <circle cx="50" cy="50" r="40" fill="url(#rasenganGradient)" />
  
  <!-- 螺旋纹路 -->
  <path d="M50,50 m-30,0 a30,30 0 1,0 60,0 a30,30 0 1,0 -60,0" fill="none" stroke="white" stroke-width="2" stroke-dasharray="5,3" />
  <path d="M50,50 m-25,0 a25,25 0 1,0 50,0 a25,25 0 1,0 -50,0" fill="none" stroke="white" stroke-width="2" stroke-dasharray="4,3" />
  <path d="M50,50 m-20,0 a20,20 0 1,0 40,0 a20,20 0 1,0 -40,0" fill="none" stroke="white" stroke-width="2" stroke-dasharray="3,2" />
  
  <!-- 能量光效 -->
  <circle cx="50" cy="50" r="45" fill="none" stroke="#87CEFA" stroke-width="2" opacity="0.6">
    <animate attributeName="r" values="42;48;42" dur="2s" repeatCount="indefinite" />
    <animate attributeName="opacity" values="0.6;0.2;0.6" dur="2s" repeatCount="indefinite" />
  </circle>
</svg>