<?xml version="1.0" encoding="UTF-8"?>
<svg xmlns="http://www.w3.org/2000/svg" viewBox="0 0 200 200">
  <!-- 背景 -->
  <circle cx="100" cy="100" r="95" fill="#6A5ACD" />
  
  <!-- 脸部 -->
  <circle cx="100" cy="100" r="70" fill="#F5F5F5" />
  
  <!-- 头发 -->
  <path d="M40,70 Q60,30 100,40 Q140,30 160,70" fill="#DCDCDC" stroke="#C0C0C0" stroke-width="5" />
  <path d="M40,70 Q60,40 100,50 Q140,40 160,70" fill="#DCDCDC" />
  
  <!-- 护额 -->
  <rect x="50" y="60" width="100" height="20" rx="5" fill="#4682B4" />
  <circle cx="100" cy="70" r="8" fill="#C0C0C0" />
  <path d="M95,70 Q100,65 105,70 Q100,75 95,70" fill="#000" />
  
  <!-- 面罩 -->
  <path d="M70,90 Q100,110 130,90 L130,130 Q100,150 70,130 Z" fill="#708090" />
  
  <!-- 写轮眼 -->
  <circle cx="80" cy="80" r="10" fill="#FFFFFF" />
  <circle cx="80" cy="80" r="7" fill="#FF0000" />
  <circle cx="80" cy="80" r="3" fill="#000000" />
  <path d="M75,80 Q80,75 85,80 Q80,85 75,80" fill="#000000" />
  
  <!-- 普通眼睛 -->
  <ellipse cx="120" cy="80" rx="8" ry="10" fill="#2F4F4F" />
  
  <!-- 须佐能乎光环 -->
  <circle cx="100" cy="100" r="90" fill="none" stroke="#9370DB" stroke-width="3" opacity="0.5" />
  <circle cx="100" cy="100" r="85" fill="none" stroke="#9370DB" stroke-width="2" opacity="0.3" />
</svg>