<?xml version="1.0" encoding="UTF-8"?>
<svg xmlns="http://www.w3.org/2000/svg" viewBox="0 0 200 200">
  <!-- 背景 -->
  <circle cx="100" cy="100" r="95" fill="#FFB6C1" />
  
  <!-- 脸部 -->
  <circle cx="100" cy="100" r="70" fill="#FFDAB9" />
  
  <!-- 头发 -->
  <path d="M40,70 Q60,30 100,40 Q140,30 160,70" fill="#FF69B4" stroke="#FF1493" stroke-width="5" />
  <path d="M40,70 Q60,40 100,50 Q140,40 160,70" fill="#FF69B4" />
  
  <!-- 护额 -->
  <rect x="50" y="60" width="100" height="20" rx="5" fill="#4682B4" />
  <circle cx="100" cy="70" r="8" fill="#C0C0C0" />
  <path d="M95,70 Q100,65 105,70 Q100,75 95,70" fill="#000" />
  
  <!-- 眼睛 -->
  <ellipse cx="80" cy="90" rx="8" ry="10" fill="#008000" />
  <ellipse cx="120" cy="90" rx="8" ry="10" fill="#008000" />
  
  <!-- 嘴巴 -->
  <path d="M90,120 Q100,125 110,120" fill="none" stroke="#FF1493" stroke-width="2" />
  
  <!-- 百豪之印 -->
  <circle cx="100" cy="65" r="5" fill="#800080" />
  
  <!-- 百豪解放光环 -->
  <circle cx="100" cy="100" r="90" fill="none" stroke="#800080" stroke-width="3" opacity="0.5" />
  <circle cx="100" cy="100" r="85" fill="none" stroke="#800080" stroke-width="2" opacity="0.3" />
</svg>