<?xml version="1.0" encoding="UTF-8"?>
<svg xmlns="http://www.w3.org/2000/svg" viewBox="0 0 200 200">
  <!-- 背景 -->
  <circle cx="100" cy="100" r="95" fill="#483D8B" />
  
  <!-- 脸部 -->
  <circle cx="100" cy="100" r="70" fill="#FFE4E1" />
  
  <!-- 头发 -->
  <path d="M40,70 Q60,30 100,40 Q140,30 160,70" fill="#000000" stroke="#000000" stroke-width="5" />
  <path d="M40,70 Q60,40 100,50 Q140,40 160,70" fill="#000000" />
  <path d="M70,60 L60,90 M130,60 L140,90" fill="none" stroke="#000000" stroke-width="3" />
  
  <!-- 护额 -->
  <rect x="50" y="60" width="100" height="20" rx="5" fill="#4682B4" />
  <circle cx="100" cy="70" r="8" fill="#C0C0C0" />
  <path d="M95,70 Q100,65 105,70 Q100,75 95,70" fill="#000" />
  <line x1="100" y1="65" x2="100" y2="75" stroke="#000" stroke-width="1" />
  
  <!-- 眼睛 -->
  <ellipse cx="80" cy="90" rx="8" ry="10" fill="#8B0000" />
  <ellipse cx="120" cy="90" rx="8" ry="10" fill="#8B0000" />
  <path d="M75,90 L85,90 M115,90 L125,90" stroke="#000" stroke-width="1" />
  <circle cx="80" cy="90" r="3" fill="#000" />
  <circle cx="120" cy="90" r="3" fill="#000" />
  
  <!-- 嘴巴 -->
  <path d="M90,120 L110,120" fill="none" stroke="#000000" stroke-width="2" />
  
  <!-- 六道之力光环 -->
  <circle cx="100" cy="100" r="90" fill="none" stroke="#6A0DAD" stroke-width="3" opacity="0.5" />
  <circle cx="100" cy="100" r="85" fill="none" stroke="#6A0DAD" stroke-width="2" opacity="0.3" />
</svg>