<?xml version="1.0" encoding="UTF-8"?>
<svg width="200" height="200" viewBox="0 0 200 200" xmlns="http://www.w3.org/2000/svg">
  <!-- 背景圆形 -->
  <circle cx="100" cy="100" r="95" fill="#388e3c" opacity="0.1"/>
  
  <!-- 阎魔刀气场 -->
  <circle cx="100" cy="100" r="90" fill="none" stroke="#4caf50" stroke-width="3" opacity="0.3">
    <animate attributeName="r" values="85;95;85" dur="4s" repeatCount="indefinite"/>
    <animate attributeName="opacity" values="0.5;0.2;0.5" dur="4s" repeatCount="indefinite"/>
  </circle>
  
  <!-- 身体轮廓 -->
  <path d="M100,40 C120,40 130,50 130,70 C130,85 125,95 125,110 C125,130 115,160 100,160 C85,160 75,130 75,110 C75,95 70,85 70,70 C70,50 80,40 100,40 Z" fill="#ffdbac"/>
  
  <!-- 绿色腰带 -->
  <path d="M75,110 C75,110 85,115 100,115 C115,115 125,110 125,110 L125,125 C125,125 115,130 100,130 C85,130 75,125 75,125 Z" fill="#388e3c"/>
  
  <!-- 黑色长裤 -->
  <path d="M75,125 C75,125 85,130 100,130 C115,130 125,125 125,125 L125,160 C125,160 115,165 100,165 C85,165 75,160 75,160 Z" fill="#212121"/>
  
  <!-- 绿色上衣 -->
  <path d="M75,70 C75,70 85,75 100,75 C115,75 125,70 125,70 L125,110 C125,110 115,115 100,115 C85,115 75,110 75,110 Z" fill="#4caf50"/>
  
  <!-- 头部 -->
  <circle cx="100" cy="55" r="25" fill="#ffdbac"/>
  
  <!-- 绿色头发 -->
  <path d="M75,45 C75,45 85,30 100,30 C115,30 125,45 125,45 C125,45 115,35 100,35 C85,35 75,45 75,45 Z" fill="#388e3c"/>
  <path d="M75,45 C75,45 85,25 100,25 C115,25 125,45 125,45 Z" fill="#388e3c"/>
  
  <!-- 眼睛 - 锐利的眼神 -->
  <path d="M85,55 L95,55" stroke="#000000" stroke-width="2" stroke-linecap="round"/>
  <circle cx="90" cy="55" r="2" fill="#000000"/>
  
  <!-- 右眼疤痕 -->
  <path d="M105,45 L115,65" stroke="#b71c1c" stroke-width="2"/>
  <path d="M105,45 L115,65" stroke="#b71c1c" stroke-width="1" opacity="0.5" stroke-dasharray="2,2"/>
  
  <!-- 嘴巴 - 严肃表情 -->
  <path d="M90,65 L110,65" stroke="#000000" stroke-width="2"/>
  
  <!-- 三把刀 -->
  <!-- 和道一文字 -->
  <rect x="60" y="100" width="5" height="80" rx="1" transform="rotate(-30, 60, 100)" fill="#bdbdbd"/>
  <rect x="60" y="100" width="3" height="60" rx="1" transform="rotate(-30, 60, 100)" fill="#78909c"/>
  
  <!-- 三代鬼彻 -->
  <rect x="70" y="95" width="5" height="80" rx="1" transform="rotate(-15, 70, 95)" fill="#263238"/>
  <rect x="70" y="95" width="3" height="60" rx="1" transform="rotate(-15, 70, 95)" fill="#455a64"/>
  
  <!-- 阎魔刀 - 特殊红色刀鞘 -->
  <rect x="130" y="100" width="6" height="85" rx="1" transform="rotate(15, 130, 100)" fill="#b71c1c"/>
  <rect x="130" y="100" width="4" height="65" rx="1" transform="rotate(15, 130, 100)" fill="#d32f2f"/>
  
  <!-- 阎魔刀气场 -->
  <ellipse cx="145" cy="130" rx="10" ry="30" transform="rotate(15, 145, 130)" fill="#d32f2f" opacity="0.2">
    <animate attributeName="opacity" values="0.2;0.4;0.2" dur="3s" repeatCount="indefinite"/>
  </ellipse>
  
  <!-- 霸气效果 -->
  <g opacity="0.5">
    <circle cx="100" cy="100" r="60" fill="none" stroke="#212121" stroke-width="2" opacity="0.2">
      <animate attributeName="r" values="55;65;55" dur="3s" repeatCount="indefinite"/>
      <animate attributeName="opacity" values="0.3;0.1;0.3" dur="3s" repeatCount="indefinite"/>
    </circle>
    <circle cx="100" cy="100" r="70" fill="none" stroke="#212121" stroke-width="1" opacity="0.1">
      <animate attributeName="r" values="65;75;65" dur="4s" repeatCount="indefinite"/>
      <animate attributeName="opacity" values="0.2;0.05;0.2" dur="4s" repeatCount="indefinite"/>
    </circle>
  </g>
</svg>